<?xml version="1.0" encoding="utf-8"?>
<!-- Generator: Adobe Illustrator 16.0.0, SVG Export Plug-In . SVG Version: 6.00 Build 0)  -->
<!DOCTYPE svg PUBLIC "-//W3C//DTD SVG 1.1//EN" "http://www.w3.org/Graphics/SVG/1.1/DTD/svg11.dtd">
<svg version="1.1" id="Capa_1" xmlns="http://www.w3.org/2000/svg" xmlns:xlink="http://www.w3.org/1999/xlink" x="0px" y="0px"
	 width="90px" height="90px" viewBox="0 0 90 90" enable-background="new 0 0 90 90" xml:space="preserve">
<g>
	<path fill="#FFFFFF" d="M59.783,41.304c-0.133-0.4-0.266-0.833-0.396-1.3c-0.117,0.475-0.24,0.914-0.373,1.318
		c-0.133,0.404-0.258,0.754-0.373,1.05l-1.563,4.631h4.653l-1.574-4.655C60.04,42.052,59.915,41.705,59.783,41.304z"/>
	<path fill="#FFFFFF" d="M45,2.5C21.53,2.5,2.5,21.526,2.5,44.996C2.5,68.471,21.531,87.5,45,87.5c23.471,0,42.5-19.029,42.5-42.504
		C87.5,21.526,68.471,2.5,45,2.5z M34.651,39.537h-6.73v4.304h5.809v3.046h-5.809V53.5h-3.966V36.504h11.268L34.651,39.537z
		 M47.83,53.016c-1.02,0.443-2.232,0.67-3.639,0.67c-1.292,0-2.448-0.223-3.471-0.658c-1.022-0.44-1.89-1.047-2.601-1.819
		c-0.711-0.774-1.258-1.692-1.639-2.752c-0.382-1.063-0.572-2.216-0.572-3.46c0-0.949,0.111-1.824,0.333-2.625
		c0.222-0.801,0.526-1.522,0.916-2.164c0.389-0.641,0.851-1.206,1.388-1.691c0.536-0.486,1.118-0.894,1.743-1.225
		c0.625-0.33,1.286-0.577,1.978-0.74c0.692-0.164,1.392-0.245,2.1-0.245c1.018,0,2.018,0.171,2.997,0.512
		c0.98,0.343,1.871,0.868,2.673,1.576l-1.867,2.438c-0.599-0.412-1.219-0.726-1.86-0.939s-1.278-0.32-1.907-0.32
		c-0.607,0-1.178,0.104-1.715,0.314s-1.009,0.537-1.417,0.98c-0.408,0.443-0.731,1.008-0.968,1.692
		c-0.237,0.684-0.355,1.497-0.355,2.438c0,0.926,0.128,1.729,0.385,2.413c0.257,0.686,0.601,1.255,1.033,1.71
		c0.431,0.455,0.927,0.795,1.486,1.021c0.561,0.228,1.147,0.34,1.762,0.34c0.637,0,1.271-0.117,1.901-0.353
		c0.629-0.231,1.229-0.594,1.797-1.084l2.073,1.981C49.7,51.904,48.85,52.566,47.83,53.016z M63.924,53.5l-1.294-3.814h-6.462
		L54.885,53.5h-4.082l6.578-16.996h4.037L67.995,53.5H63.924z"/>
</g>
</svg>
